solid OpenSCAD_Model
  facet normal -0.248696 -0.968582 0
    outer loop
      vertex 15.7969 -23.2444 -16.25
      vertex 21.8667 -24.8029 16.25
      vertex 15.7969 -23.2444 16.25
    endloop
  endfacet
  facet normal -0.248696 -0.968582 -0
    outer loop
      vertex 21.8667 -24.8029 16.25
      vertex 15.7969 -23.2444 -16.25
      vertex 21.8667 -24.8029 -16.25
    endloop
  endfacet
  facet normal 0 0 -1
    outer loop
      vertex 25 -24.8029 -16.25
      vertex 23.12 -14.8817 -16.25
      vertex 25 -14.8817 -16.25
    endloop
  endfacet
  facet normal 0 0 -1
    outer loop
      vertex 21.8667 -24.8029 -16.25
      vertex 23.12 -14.8817 -16.25
      vertex 25 -24.8029 -16.25
    endloop
  endfacet
  facet normal 0 0 -1
    outer loop
      vertex 21.8667 -24.8029 -16.25
      vertex 19.4781 -13.9466 -16.25
      vertex 23.12 -14.8817 -16.25
    endloop
  endfacet
  facet normal 0 0 -1
    outer loop
      vertex 15.7969 -23.2444 -16.25
      vertex 19.4781 -13.9466 -16.25
      vertex 21.8667 -24.8029 -16.25
    endloop
  endfacet
  facet normal -0 0 -1
    outer loop
      vertex 19.4781 -13.9466 -16.25
      vertex 15.7969 -23.2444 -16.25
      vertex 16.1832 -12.1353 -16.25
    endloop
  endfacet
  facet normal 0 0 -1
    outer loop
      vertex 10.3054 -20.2254 -16.25
      vertex 16.1832 -12.1353 -16.25
      vertex 15.7969 -23.2444 -16.25
    endloop
  endfacet
  facet normal -0 0 -1
    outer loop
      vertex 16.1832 -12.1353 -16.25
      vertex 10.3054 -20.2254 -16.25
      vertex 13.4423 -9.56136 -16.25
    endloop
  endfacet
  facet normal 0 0 -1
    outer loop
      vertex 5.73717 -15.9356 -16.25
      vertex 13.4423 -9.56136 -16.25
      vertex 10.3054 -20.2254 -16.25
    endloop
  endfacet
  facet normal -0 0 -1
    outer loop
      vertex 13.4423 -9.56136 -16.25
      vertex 5.73717 -15.9356 -16.25
      vertex 11.4276 -6.38669 -16.25
    endloop
  endfacet
  facet normal 0 0 -1
    outer loop
      vertex 2.37932 -10.6445 -16.25
      vertex 11.4276 -6.38669 -16.25
      vertex 5.73717 -15.9356 -16.25
    endloop
  endfacet
  facet normal -0 0 -1
    outer loop
      vertex 11.4276 -6.38669 -16.25
      vertex 2.37932 -10.6445 -16.25
      vertex 10.2657 -2.81072 -16.25
    endloop
  endfacet
  facet normal 0 0 -1
    outer loop
      vertex 0.44282 -4.68453 -16.25
      vertex 10.2657 -2.81072 -16.25
      vertex 2.37932 -10.6445 -16.25
    endloop
  endfacet
  facet normal 0 0 -1
    outer loop
      vertex 10.0296 0.941857 -16.25
      vertex 3.8918 13.3957 -16.25
      vertex 7.88632 18.2242 -16.25
    endloop
  endfacet
  facet normal -0 0 -1
    outer loop
      vertex 10.2657 -2.81072 -16.25
      vertex 0.44282 -4.68453 -16.25
      vertex 10.0296 0.941857 -16.25
    endloop
  endfacet
  facet normal 0 0 -1
    outer loop
      vertex 10.0296 0.941857 -16.25
      vertex 1.22359 7.72542 -16.25
      vertex 3.8918 13.3957 -16.25
    endloop
  endfacet
  facet normal 0 0 -1
    outer loop
      vertex 0.0493326 1.56976 -16.25
      vertex 10.0296 0.941857 -16.25
      vertex 0.44282 -4.68453 -16.25
    endloop
  endfacet
  facet normal 0 0 -1
    outer loop
      vertex 10.0296 0.941857 -16.25
      vertex 0.0493326 1.56976 -16.25
      vertex 1.22359 7.72542 -16.25
    endloop
  endfacet
  facet normal 0 0 -1
    outer loop
      vertex 21.2697 14.5287 -16.25
      vertex 25 25 -16.25
      vertex 25 15 -16.25
    endloop
  endfacet
  facet normal 0 0 -1
    outer loop
      vertex 21.2697 14.5287 -16.25
      vertex 18.7828 24.2146 -16.25
      vertex 25 25 -16.25
    endloop
  endfacet
  facet normal 0 0 -1
    outer loop
      vertex 17.7737 13.1446 -16.25
      vertex 18.7828 24.2146 -16.25
      vertex 21.2697 14.5287 -16.25
    endloop
  endfacet
  facet normal 0 0 -1
    outer loop
      vertex 12.9562 21.9077 -16.25
      vertex 17.7737 13.1446 -16.25
      vertex 14.7318 10.9345 -16.25
    endloop
  endfacet
  facet normal 0 0 -1
    outer loop
      vertex 17.7737 13.1446 -16.25
      vertex 12.9562 21.9077 -16.25
      vertex 18.7828 24.2146 -16.25
    endloop
  endfacet
  facet normal 0 0 -1
    outer loop
      vertex 7.88632 18.2242 -16.25
      vertex 14.7318 10.9345 -16.25
      vertex 12.3351 8.0374 -16.25
    endloop
  endfacet
  facet normal 0 0 -1
    outer loop
      vertex 7.88632 18.2242 -16.25
      vertex 12.3351 8.0374 -16.25
      vertex 10.7342 4.63525 -16.25
    endloop
  endfacet
  facet normal 0 0 -1
    outer loop
      vertex 7.88632 18.2242 -16.25
      vertex 10.7342 4.63525 -16.25
      vertex 10.0296 0.941857 -16.25
    endloop
  endfacet
  facet normal 0 0 -1
    outer loop
      vertex 14.7318 10.9345 -16.25
      vertex 7.88632 18.2242 -16.25
      vertex 12.9562 21.9077 -16.25
    endloop
  endfacet
  facet normal -0.125331 0.992115 0
    outer loop
      vertex 25 25 -16.25
      vertex 18.7828 24.2146 16.25
      vertex 25 25 16.25
    endloop
  endfacet
  facet normal -0.125331 0.992115 0
    outer loop
      vertex 18.7828 24.2146 16.25
      vertex 25 25 -16.25
      vertex 18.7828 24.2146 -16.25
    endloop
  endfacet
  facet normal -0.481756 -0.876305 0
    outer loop
      vertex 10.3054 -20.2254 -16.25
      vertex 15.7969 -23.2444 16.25
      vertex 10.3054 -20.2254 16.25
    endloop
  endfacet
  facet normal -0.481756 -0.876305 -0
    outer loop
      vertex 15.7969 -23.2444 16.25
      vertex 10.3054 -20.2254 -16.25
      vertex 15.7969 -23.2444 -16.25
    endloop
  endfacet
  facet normal 0 0 1
    outer loop
      vertex 25 25 16.25
      vertex 21.2697 14.5287 16.25
      vertex 25 15 16.25
    endloop
  endfacet
  facet normal -0 0 1
    outer loop
      vertex 18.7828 24.2146 16.25
      vertex 21.2697 14.5287 16.25
      vertex 25 25 16.25
    endloop
  endfacet
  facet normal 0 0 1
    outer loop
      vertex 18.7828 24.2146 16.25
      vertex 17.7737 13.1446 16.25
      vertex 21.2697 14.5287 16.25
    endloop
  endfacet
  facet normal -0 0 1
    outer loop
      vertex 12.9562 21.9077 16.25
      vertex 17.7737 13.1446 16.25
      vertex 18.7828 24.2146 16.25
    endloop
  endfacet
  facet normal 0 0 1
    outer loop
      vertex 17.7737 13.1446 16.25
      vertex 12.9562 21.9077 16.25
      vertex 14.7318 10.9345 16.25
    endloop
  endfacet
  facet normal -0 0 1
    outer loop
      vertex 7.88632 18.2242 16.25
      vertex 14.7318 10.9345 16.25
      vertex 12.9562 21.9077 16.25
    endloop
  endfacet
  facet normal 0 0 1
    outer loop
      vertex 14.7318 10.9345 16.25
      vertex 7.88632 18.2242 16.25
      vertex 12.3351 8.0374 16.25
    endloop
  endfacet
  facet normal -0 0 1
    outer loop
      vertex 3.8918 13.3957 16.25
      vertex 12.3351 8.0374 16.25
      vertex 7.88632 18.2242 16.25
    endloop
  endfacet
  facet normal 0 0 1
    outer loop
      vertex 12.3351 8.0374 16.25
      vertex 3.8918 13.3957 16.25
      vertex 10.7342 4.63525 16.25
    endloop
  endfacet
  facet normal -0 0 1
    outer loop
      vertex 23.12 -14.8817 16.25
      vertex 25 -24.8029 16.25
      vertex 25 -14.8817 16.25
    endloop
  endfacet
  facet normal 0 0 1
    outer loop
      vertex 23.12 -14.8817 16.25
      vertex 21.8667 -24.8029 16.25
      vertex 25 -24.8029 16.25
    endloop
  endfacet
  facet normal 0 0 1
    outer loop
      vertex 19.4781 -13.9466 16.25
      vertex 21.8667 -24.8029 16.25
      vertex 23.12 -14.8817 16.25
    endloop
  endfacet
  facet normal 0 0 1
    outer loop
      vertex 15.7969 -23.2444 16.25
      vertex 19.4781 -13.9466 16.25
      vertex 16.1832 -12.1353 16.25
    endloop
  endfacet
  facet normal 0 0 1
    outer loop
      vertex 19.4781 -13.9466 16.25
      vertex 15.7969 -23.2444 16.25
      vertex 21.8667 -24.8029 16.25
    endloop
  endfacet
  facet normal 0 0 1
    outer loop
      vertex 10.3054 -20.2254 16.25
      vertex 16.1832 -12.1353 16.25
      vertex 13.4423 -9.56136 16.25
    endloop
  endfacet
  facet normal 0 0 1
    outer loop
      vertex 5.73717 -15.9356 16.25
      vertex 13.4423 -9.56136 16.25
      vertex 11.4276 -6.38669 16.25
    endloop
  endfacet
  facet normal 0 0 1
    outer loop
      vertex 16.1832 -12.1353 16.25
      vertex 10.3054 -20.2254 16.25
      vertex 15.7969 -23.2444 16.25
    endloop
  endfacet
  facet normal 0 0 1
    outer loop
      vertex 2.37932 -10.6445 16.25
      vertex 11.4276 -6.38669 16.25
      vertex 10.2657 -2.81072 16.25
    endloop
  endfacet
  facet normal 0 0 1
    outer loop
      vertex 0.44282 -4.68453 16.25
      vertex 10.2657 -2.81072 16.25
      vertex 10.0296 0.941857 16.25
    endloop
  endfacet
  facet normal -0 0 1
    outer loop
      vertex 1.22359 7.72542 16.25
      vertex 10.7342 4.63525 16.25
      vertex 3.8918 13.3957 16.25
    endloop
  endfacet
  facet normal 0 0 1
    outer loop
      vertex 13.4423 -9.56136 16.25
      vertex 5.73717 -15.9356 16.25
      vertex 10.3054 -20.2254 16.25
    endloop
  endfacet
  facet normal 0 0 1
    outer loop
      vertex 10.7342 4.63525 16.25
      vertex 1.22359 7.72542 16.25
      vertex 10.0296 0.941857 16.25
    endloop
  endfacet
  facet normal 0 0 1
    outer loop
      vertex 11.4276 -6.38669 16.25
      vertex 2.37932 -10.6445 16.25
      vertex 5.73717 -15.9356 16.25
    endloop
  endfacet
  facet normal -0 0 1
    outer loop
      vertex 0.0493326 1.56976 16.25
      vertex 10.0296 0.941857 16.25
      vertex 1.22359 7.72542 16.25
    endloop
  endfacet
  facet normal 0 0 1
    outer loop
      vertex 10.2657 -2.81072 16.25
      vertex 0.44282 -4.68453 16.25
      vertex 2.37932 -10.6445 16.25
    endloop
  endfacet
  facet normal 0 0 1
    outer loop
      vertex 10.0296 0.941857 16.25
      vertex 0.0493326 1.56976 16.25
      vertex 0.44282 -4.68453 16.25
    endloop
  endfacet
  facet normal -0.77051 0.637428 0
    outer loop
      vertex 3.8918 13.3957 -16.25
      vertex 7.88632 18.2242 16.25
      vertex 7.88632 18.2242 -16.25
    endloop
  endfacet
  facet normal -0.77051 0.637428 0
    outer loop
      vertex 7.88632 18.2242 16.25
      vertex 3.8918 13.3957 -16.25
      vertex 3.8918 13.3957 16.25
    endloop
  endfacet
  facet normal -0.982287 0.187382 0
    outer loop
      vertex 0.0493326 1.56976 -16.25
      vertex 1.22359 7.72542 16.25
      vertex 1.22359 7.72542 -16.25
    endloop
  endfacet
  facet normal -0.982287 0.187382 0
    outer loop
      vertex 1.22359 7.72542 16.25
      vertex 0.0493326 1.56976 -16.25
      vertex 0.0493326 1.56976 16.25
    endloop
  endfacet
  facet normal 0 -1 0
    outer loop
      vertex 21.8667 -24.8029 -16.25
      vertex 25 -24.8029 16.25
      vertex 21.8667 -24.8029 16.25
    endloop
  endfacet
  facet normal 0 -1 -0
    outer loop
      vertex 25 -24.8029 16.25
      vertex 21.8667 -24.8029 -16.25
      vertex 25 -24.8029 -16.25
    endloop
  endfacet
  facet normal -0.844327 -0.535829 0
    outer loop
      vertex 5.73717 -15.9356 -16.25
      vertex 2.37932 -10.6445 16.25
      vertex 2.37932 -10.6445 -16.25
    endloop
  endfacet
  facet normal -0.844327 -0.535829 0
    outer loop
      vertex 2.37932 -10.6445 16.25
      vertex 5.73717 -15.9356 -16.25
      vertex 5.73717 -15.9356 16.25
    endloop
  endfacet
  facet normal -0.587787 0.809016 0
    outer loop
      vertex 12.9562 21.9077 -16.25
      vertex 7.88632 18.2242 16.25
      vertex 12.9562 21.9077 16.25
    endloop
  endfacet
  facet normal -0.587787 0.809016 0
    outer loop
      vertex 7.88632 18.2242 16.25
      vertex 12.9562 21.9077 -16.25
      vertex 7.88632 18.2242 -16.25
    endloop
  endfacet
  facet normal -0.951057 -0.309015 0
    outer loop
      vertex 2.37932 -10.6445 -16.25
      vertex 0.44282 -4.68453 16.25
      vertex 0.44282 -4.68453 -16.25
    endloop
  endfacet
  facet normal -0.951057 -0.309015 0
    outer loop
      vertex 0.44282 -4.68453 16.25
      vertex 2.37932 -10.6445 -16.25
      vertex 2.37932 -10.6445 16.25
    endloop
  endfacet
  facet normal -0.368123 0.929777 0
    outer loop
      vertex 18.7828 24.2146 -16.25
      vertex 12.9562 21.9077 16.25
      vertex 18.7828 24.2146 16.25
    endloop
  endfacet
  facet normal -0.368123 0.929777 0
    outer loop
      vertex 12.9562 21.9077 16.25
      vertex 18.7828 24.2146 -16.25
      vertex 12.9562 21.9077 -16.25
    endloop
  endfacet
  facet normal -0.684543 -0.728973 0
    outer loop
      vertex 5.73717 -15.9356 -16.25
      vertex 10.3054 -20.2254 16.25
      vertex 5.73717 -15.9356 16.25
    endloop
  endfacet
  facet normal -0.684543 -0.728973 -0
    outer loop
      vertex 10.3054 -20.2254 16.25
      vertex 5.73717 -15.9356 -16.25
      vertex 10.3054 -20.2254 -16.25
    endloop
  endfacet
  facet normal -0.904828 0.425777 0
    outer loop
      vertex 1.22359 7.72542 -16.25
      vertex 3.8918 13.3957 16.25
      vertex 3.8918 13.3957 -16.25
    endloop
  endfacet
  facet normal -0.904828 0.425777 0
    outer loop
      vertex 3.8918 13.3957 16.25
      vertex 1.22359 7.72542 -16.25
      vertex 1.22359 7.72542 16.25
    endloop
  endfacet
  facet normal -0.998027 -0.0627907 0
    outer loop
      vertex 0.44282 -4.68453 -16.25
      vertex 0.0493326 1.56976 16.25
      vertex 0.0493326 1.56976 -16.25
    endloop
  endfacet
  facet normal -0.998027 -0.0627907 0
    outer loop
      vertex 0.0493326 1.56976 16.25
      vertex 0.44282 -4.68453 -16.25
      vertex 0.44282 -4.68453 16.25
    endloop
  endfacet
  facet normal 0.248695 0.968582 -0
    outer loop
      vertex 23.12 -14.8817 -16.25
      vertex 19.4781 -13.9466 16.25
      vertex 23.12 -14.8817 16.25
    endloop
  endfacet
  facet normal 0.248695 0.968582 0
    outer loop
      vertex 19.4781 -13.9466 16.25
      vertex 23.12 -14.8817 -16.25
      vertex 19.4781 -13.9466 -16.25
    endloop
  endfacet
  facet normal 0.90483 -0.425773 0
    outer loop
      vertex 10.7342 4.63525 16.25
      vertex 12.3351 8.0374 -16.25
      vertex 12.3351 8.0374 16.25
    endloop
  endfacet
  facet normal 0.90483 -0.425773 0
    outer loop
      vertex 12.3351 8.0374 -16.25
      vertex 10.7342 4.63525 16.25
      vertex 10.7342 4.63525 -16.25
    endloop
  endfacet
  facet normal 0.36811 -0.929782 0
    outer loop
      vertex 17.7737 13.1446 -16.25
      vertex 21.2697 14.5287 16.25
      vertex 17.7737 13.1446 16.25
    endloop
  endfacet
  facet normal 0.36811 -0.929782 0
    outer loop
      vertex 21.2697 14.5287 16.25
      vertex 17.7737 13.1446 -16.25
      vertex 21.2697 14.5287 -16.25
    endloop
  endfacet
  facet normal 0.481736 0.876316 -0
    outer loop
      vertex 19.4781 -13.9466 -16.25
      vertex 16.1832 -12.1353 16.25
      vertex 19.4781 -13.9466 16.25
    endloop
  endfacet
  facet normal 0.481736 0.876316 0
    outer loop
      vertex 16.1832 -12.1353 16.25
      vertex 19.4781 -13.9466 -16.25
      vertex 16.1832 -12.1353 -16.25
    endloop
  endfacet
  facet normal 0.125347 -0.992113 0
    outer loop
      vertex 21.2697 14.5287 -16.25
      vertex 25 15 16.25
      vertex 21.2697 14.5287 16.25
    endloop
  endfacet
  facet normal 0.125347 -0.992113 0
    outer loop
      vertex 25 15 16.25
      vertex 21.2697 14.5287 -16.25
      vertex 25 15 -16.25
    endloop
  endfacet
  facet normal 0 1 -0
    outer loop
      vertex 25 -14.8817 -16.25
      vertex 23.12 -14.8817 16.25
      vertex 25 -14.8817 16.25
    endloop
  endfacet
  facet normal 0 1 0
    outer loop
      vertex 23.12 -14.8817 16.25
      vertex 25 -14.8817 -16.25
      vertex 23.12 -14.8817 -16.25
    endloop
  endfacet
  facet normal 0.684556 0.72896 -0
    outer loop
      vertex 16.1832 -12.1353 -16.25
      vertex 13.4423 -9.56136 16.25
      vertex 16.1832 -12.1353 16.25
    endloop
  endfacet
  facet normal 0.684556 0.72896 0
    outer loop
      vertex 13.4423 -9.56136 16.25
      vertex 16.1832 -12.1353 -16.25
      vertex 13.4423 -9.56136 -16.25
    endloop
  endfacet
  facet normal 0.982285 -0.187394 0
    outer loop
      vertex 10.0296 0.941857 16.25
      vertex 10.7342 4.63525 -16.25
      vertex 10.7342 4.63525 16.25
    endloop
  endfacet
  facet normal 0.982285 -0.187394 0
    outer loop
      vertex 10.7342 4.63525 -16.25
      vertex 10.0296 0.941857 16.25
      vertex 10.0296 0.941857 -16.25
    endloop
  endfacet
  facet normal 0.844329 0.535825 0
    outer loop
      vertex 13.4423 -9.56136 16.25
      vertex 11.4276 -6.38669 -16.25
      vertex 11.4276 -6.38669 16.25
    endloop
  endfacet
  facet normal 0.844329 0.535825 0
    outer loop
      vertex 11.4276 -6.38669 -16.25
      vertex 13.4423 -9.56136 16.25
      vertex 13.4423 -9.56136 -16.25
    endloop
  endfacet
  facet normal 0.998027 0.0627926 0
    outer loop
      vertex 10.2657 -2.81072 16.25
      vertex 10.0296 0.941857 -16.25
      vertex 10.0296 0.941857 16.25
    endloop
  endfacet
  facet normal 0.998027 0.0627926 0
    outer loop
      vertex 10.0296 0.941857 -16.25
      vertex 10.2657 -2.81072 16.25
      vertex 10.2657 -2.81072 -16.25
    endloop
  endfacet
  facet normal 0.951057 0.309016 0
    outer loop
      vertex 11.4276 -6.38669 16.25
      vertex 10.2657 -2.81072 -16.25
      vertex 10.2657 -2.81072 16.25
    endloop
  endfacet
  facet normal 0.951057 0.309016 0
    outer loop
      vertex 10.2657 -2.81072 -16.25
      vertex 11.4276 -6.38669 16.25
      vertex 11.4276 -6.38669 -16.25
    endloop
  endfacet
  facet normal 0.770512 -0.637426 0
    outer loop
      vertex 12.3351 8.0374 16.25
      vertex 14.7318 10.9345 -16.25
      vertex 14.7318 10.9345 16.25
    endloop
  endfacet
  facet normal 0.770512 -0.637426 0
    outer loop
      vertex 14.7318 10.9345 -16.25
      vertex 12.3351 8.0374 16.25
      vertex 12.3351 8.0374 -16.25
    endloop
  endfacet
  facet normal 0.587791 -0.809013 0
    outer loop
      vertex 14.7318 10.9345 -16.25
      vertex 17.7737 13.1446 16.25
      vertex 14.7318 10.9345 16.25
    endloop
  endfacet
  facet normal 0.587791 -0.809013 0
    outer loop
      vertex 17.7737 13.1446 16.25
      vertex 14.7318 10.9345 -16.25
      vertex 17.7737 13.1446 -16.25
    endloop
  endfacet
  facet normal 1 0 0
    outer loop
      vertex 25 25 16.25
      vertex 25 20.625 5
      vertex 25 25 -16.25
    endloop
  endfacet
  facet normal 1 0 0
    outer loop
      vertex 25 25 16.25
      vertex 25 19.375 5
      vertex 25 20.625 5
    endloop
  endfacet
  facet normal 1 0 0
    outer loop
      vertex 25 19.375 5
      vertex 25 15 16.25
      vertex 25 19.375 -5
    endloop
  endfacet
  facet normal 1 -0 0
    outer loop
      vertex 25 15 16.25
      vertex 25 19.375 5
      vertex 25 25 16.25
    endloop
  endfacet
  facet normal 1 -0 0
    outer loop
      vertex 25 20.625 -5
      vertex 25 25 -16.25
      vertex 25 20.625 5
    endloop
  endfacet
  facet normal 1 -0 0
    outer loop
      vertex 25 19.375 -5
      vertex 25 25 -16.25
      vertex 25 20.625 -5
    endloop
  endfacet
  facet normal 1 0 0
    outer loop
      vertex 25 19.375 -5
      vertex 25 15 -16.25
      vertex 25 25 -16.25
    endloop
  endfacet
  facet normal 1 0 0
    outer loop
      vertex 25 15 -16.25
      vertex 25 19.375 -5
      vertex 25 15 16.25
    endloop
  endfacet
  facet normal 1 0 0
    outer loop
      vertex 25 -14.8817 16.25
      vertex 25 -19.375 5
      vertex 25 -14.8817 -16.25
    endloop
  endfacet
  facet normal 1 -0 0
    outer loop
      vertex 25 -24.8029 16.25
      vertex 25 -19.375 5
      vertex 25 -14.8817 16.25
    endloop
  endfacet
  facet normal 1 0 0
    outer loop
      vertex 25 -20.625 5
      vertex 25 -24.8029 16.25
      vertex 25 -20.625 -5
    endloop
  endfacet
  facet normal 1 0 0
    outer loop
      vertex 25 -19.375 5
      vertex 25 -24.8029 16.25
      vertex 25 -20.625 5
    endloop
  endfacet
  facet normal 1 -0 0
    outer loop
      vertex 25 -19.375 -5
      vertex 25 -14.8817 -16.25
      vertex 25 -19.375 5
    endloop
  endfacet
  facet normal 1 0 0
    outer loop
      vertex 25 -24.8029 -16.25
      vertex 25 -19.375 -5
      vertex 25 -20.625 -5
    endloop
  endfacet
  facet normal 1 0 0
    outer loop
      vertex 25 -19.375 -5
      vertex 25 -24.8029 -16.25
      vertex 25 -14.8817 -16.25
    endloop
  endfacet
  facet normal 1 0 0
    outer loop
      vertex 25 -24.8029 -16.25
      vertex 25 -20.625 -5
      vertex 25 -24.8029 16.25
    endloop
  endfacet
  facet normal 0 0 -1
    outer loop
      vertex 41.1803 19.375 -5
      vertex 36.1803 20.625 -5
      vertex 41.1803 20.625 -5
    endloop
  endfacet
  facet normal 0 0 -1
    outer loop
      vertex 25 19.375 -5
      vertex 36.1803 20.625 -5
      vertex 41.1803 19.375 -5
    endloop
  endfacet
  facet normal -0 0 -1
    outer loop
      vertex 36.1803 20.625 -5
      vertex 25 19.375 -5
      vertex 25 20.625 -5
    endloop
  endfacet
  facet normal 0 0 -1
    outer loop
      vertex 41.1803 20.625 -5
      vertex 36.1803 20.625 -5
      vertex 36.1803 23.125 -5
    endloop
  endfacet
  facet normal 1 -0 0
    outer loop
      vertex 41.1803 19.375 5
      vertex 41.1803 20.625 -5
      vertex 41.1803 20.625 5
    endloop
  endfacet
  facet normal 1 0 0
    outer loop
      vertex 41.1803 20.625 -5
      vertex 41.1803 19.375 5
      vertex 41.1803 19.375 -5
    endloop
  endfacet
  facet normal 0 0 1
    outer loop
      vertex 36.1803 20.625 5
      vertex 41.1803 20.625 5
      vertex 36.1803 23.125 5
    endloop
  endfacet
  facet normal 0 0 1
    outer loop
      vertex 41.1803 20.625 5
      vertex 36.1803 20.625 5
      vertex 41.1803 19.375 5
    endloop
  endfacet
  facet normal 0 0 1
    outer loop
      vertex 25 19.375 5
      vertex 36.1803 20.625 5
      vertex 25 20.625 5
    endloop
  endfacet
  facet normal 0 0 1
    outer loop
      vertex 36.1803 20.625 5
      vertex 25 19.375 5
      vertex 41.1803 19.375 5
    endloop
  endfacet
  facet normal 0 1 -0
    outer loop
      vertex 36.1803 20.625 -5
      vertex 25 20.625 5
      vertex 36.1803 20.625 5
    endloop
  endfacet
  facet normal 0 1 0
    outer loop
      vertex 25 20.625 5
      vertex 36.1803 20.625 -5
      vertex 25 20.625 -5
    endloop
  endfacet
  facet normal 0 -1 0
    outer loop
      vertex 25 19.375 -5
      vertex 41.1803 19.375 5
      vertex 25 19.375 5
    endloop
  endfacet
  facet normal 0 -1 -0
    outer loop
      vertex 41.1803 19.375 5
      vertex 25 19.375 -5
      vertex 41.1803 19.375 -5
    endloop
  endfacet
  facet normal 0.447214 0.894427 -0
    outer loop
      vertex 41.1803 20.625 -5
      vertex 36.1803 23.125 5
      vertex 41.1803 20.625 5
    endloop
  endfacet
  facet normal 0.447214 0.894427 0
    outer loop
      vertex 36.1803 23.125 5
      vertex 41.1803 20.625 -5
      vertex 36.1803 23.125 -5
    endloop
  endfacet
  facet normal -1 0 0
    outer loop
      vertex 36.1803 20.625 -5
      vertex 36.1803 23.125 5
      vertex 36.1803 23.125 -5
    endloop
  endfacet
  facet normal -1 -0 0
    outer loop
      vertex 36.1803 23.125 5
      vertex 36.1803 20.625 -5
      vertex 36.1803 20.625 5
    endloop
  endfacet
  facet normal 0 0 -1
    outer loop
      vertex 36.1803 -20.625 -5
      vertex 41.1803 -20.625 -5
      vertex 36.1803 -23.125 -5
    endloop
  endfacet
  facet normal 0 0 -1
    outer loop
      vertex 41.1803 -20.625 -5
      vertex 36.1803 -20.625 -5
      vertex 41.1803 -19.375 -5
    endloop
  endfacet
  facet normal 0 0 -1
    outer loop
      vertex 25 -19.375 -5
      vertex 36.1803 -20.625 -5
      vertex 25 -20.625 -5
    endloop
  endfacet
  facet normal 0 0 -1
    outer loop
      vertex 36.1803 -20.625 -5
      vertex 25 -19.375 -5
      vertex 41.1803 -19.375 -5
    endloop
  endfacet
  facet normal 1 -0 0
    outer loop
      vertex 41.1803 -20.625 5
      vertex 41.1803 -19.375 -5
      vertex 41.1803 -19.375 5
    endloop
  endfacet
  facet normal 1 0 0
    outer loop
      vertex 41.1803 -19.375 -5
      vertex 41.1803 -20.625 5
      vertex 41.1803 -20.625 -5
    endloop
  endfacet
  facet normal 0 0 1
    outer loop
      vertex 41.1803 -19.375 5
      vertex 36.1803 -20.625 5
      vertex 41.1803 -20.625 5
    endloop
  endfacet
  facet normal -0 0 1
    outer loop
      vertex 25 -19.375 5
      vertex 36.1803 -20.625 5
      vertex 41.1803 -19.375 5
    endloop
  endfacet
  facet normal 0 0 1
    outer loop
      vertex 36.1803 -20.625 5
      vertex 25 -19.375 5
      vertex 25 -20.625 5
    endloop
  endfacet
  facet normal 0 0 1
    outer loop
      vertex 41.1803 -20.625 5
      vertex 36.1803 -20.625 5
      vertex 36.1803 -23.125 5
    endloop
  endfacet
  facet normal 0 1 -0
    outer loop
      vertex 41.1803 -19.375 -5
      vertex 25 -19.375 5
      vertex 41.1803 -19.375 5
    endloop
  endfacet
  facet normal 0 1 0
    outer loop
      vertex 25 -19.375 5
      vertex 41.1803 -19.375 -5
      vertex 25 -19.375 -5
    endloop
  endfacet
  facet normal 0 -1 0
    outer loop
      vertex 25 -20.625 -5
      vertex 36.1803 -20.625 5
      vertex 25 -20.625 5
    endloop
  endfacet
  facet normal 0 -1 -0
    outer loop
      vertex 36.1803 -20.625 5
      vertex 25 -20.625 -5
      vertex 36.1803 -20.625 -5
    endloop
  endfacet
  facet normal 0.447214 -0.894427 0
    outer loop
      vertex 36.1803 -23.125 -5
      vertex 41.1803 -20.625 5
      vertex 36.1803 -23.125 5
    endloop
  endfacet
  facet normal 0.447214 -0.894427 0
    outer loop
      vertex 41.1803 -20.625 5
      vertex 36.1803 -23.125 -5
      vertex 41.1803 -20.625 -5
    endloop
  endfacet
  facet normal -1 0 0
    outer loop
      vertex 36.1803 -23.125 -5
      vertex 36.1803 -20.625 5
      vertex 36.1803 -20.625 -5
    endloop
  endfacet
  facet normal -1 -0 0
    outer loop
      vertex 36.1803 -20.625 5
      vertex 36.1803 -23.125 -5
      vertex 36.1803 -23.125 5
    endloop
  endfacet
endsolid OpenSCAD_Model
